<svg width="512" height="512" xmlns="http://www.w3.org/2000/svg" xmlns:xlink="http://www.w3.org/1999/xlink">
 <!-- Created with UXWing SVG Editor - https://uxwing.com/svg-icon-editor/ -->
 <defs>
  <symbol id="svg_1" preserveAspectRatio="xMidYMid meet">
   <g fill="#000000">
    <path d="m57,138.5c-3.6,-0.8 -10.7,-3.5 -15.8,-6c-33.1,-16.4 -46.5,-56.1 -30.2,-89.1c11.7,-23.9 33.3,-37.4 59.9,-37.4c21.4,0 40.1,9.4 53.5,26.8c5.3,7 7.8,11.7 10.7,20.8c3.1,9.2 3.3,28.7 0.5,37.9c-6.3,20.9 -23,38.1 -43.7,44.9c-10.4,3.5 -24.9,4.4 -34.9,2.1zm17.8,-5.9c-0.1,-6.7 3.9,-12.2 15.7,-21.3c15.8,-12.3 24.1,-20.7 27.8,-28.2c2.8,-5.8 3.2,-7.6 3.2,-14.6c-0.1,-11.8 -4.4,-18.9 -14.5,-23.4c-4,-1.8 -10,-2.8 -10,-1.7c0,1.4 1.3,3.5 2,3.1c0.4,-0.3 0.7,0.1 0.7,0.8c-0.2,2.4 3.5,8.2 6.6,10.2c8.8,5.7 8.2,20 -1.4,30.9c-4,4.6 -11.5,8.1 -21.2,9.9c-12.9,2.3 -21,0.6 -34.2,-7.4c-7.6,-4.6 -11.5,-6 -11.5,-4.1c0,0.5 1.1,1.4 2.5,2c1.4,0.6 3.9,3.4 5.6,6.2c3.7,5.9 6,7.5 8.9,6c1.3,-0.7 2.6,-0.7 3.7,-0.2c1.3,0.8 1,1 -1.2,1c-4.8,0 -6,5 -2.4,9.6c2.1,2.7 2.1,2.7 4,-0.3c2.7,-4.4 5.5,-5.6 8.5,-3.6c1.4,0.9 2.4,2.5 2.4,4c0,2.8 -4.6,6.8 -7.2,6.2c-2.7,-0.8 -3.1,1 -0.6,2.7c2.7,1.9 6.9,2.1 8.6,0.4c0.7,-0.7 1.2,-0.8 1.2,-0.2c0,0.6 -1.1,2 -2.5,3.2c-1.4,1.2 -2.5,2.9 -2.5,3.7c0,3.6 4.4,9.3 7.2,9.5c0.3,0 0.6,-2 0.6,-4.4zm-15.4,-1.3c-4.5,-5.9 -6.2,-7.2 -9.5,-7.3c-2.2,0 -2.5,-0.3 -2.1,-2.9c0.3,-2.1 -0.2,-3.3 -1.9,-4.5c-1.3,-0.9 -3.1,-1.6 -4.1,-1.6c-1.6,0 -1.6,0.2 0,2.9c1.4,2.4 1.4,3.1 0.3,4.5c-3.5,4.2 -8.1,-1 -8.1,-9.3c0,-3.5 -0.6,-6.5 -1.6,-7.9c-1.6,-2.3 -3.9,-2.9 -4.7,-1.2c-0.3,0.6 -0.5,0.7 -0.4,0.3c0.1,-0.5 5.3,-10.9 11.6,-23.2c10.6,-21 11.2,-22.6 9.5,-23.8c-1,-0.7 -2.3,-1.3 -3,-1.3c-1,0 -14.4,24.2 -20.3,36.8c-1.8,3.8 -2.4,4 -3.8,0.9c-0.6,-1.3 -2.7,-3.1 -4.6,-4c-4.1,-2 -5.3,-3.3 -6.2,-7c-0.7,-2.8 0.7,-5.7 2.9,-5.7c0.6,0 0.3,0.5 -0.7,1.1c-1.4,0.8 -1.6,1.4 -0.6,2.5c1.5,1.8 3.3,1.8 4.9,-0.1c1.7,-2.1 0.3,-5.4 -2.7,-6.1c-2.1,-0.6 -3.1,-0.1 -5.1,2.1c-2,2.4 -2.3,3.5 -1.8,6.8c0.9,5.6 4.2,11.5 7.7,13.6c2.5,1.5 2.7,2 1.3,2.5c-1.3,0.5 -1.5,1.4 -1,3.9c0.4,1.7 1.3,3.8 2,4.5c1.1,1.2 1.4,0.9 2,-1.3c0.5,-2 1.2,-2.6 2.9,-2.3c3.2,0.4 3.5,4.6 0.5,7c-2,1.5 -2.1,1.9 -0.8,2.8c2.4,1.6 5.2,1.1 5.7,-1c0.3,-1.1 0.9,-1.7 1.4,-1.4c0.5,0.3 0.5,1.3 -0.1,2.4c-1.6,3 -1.2,4.7 2,8.3c3.3,3.8 10.1,7.1 16.8,8.2c4.2,0.7 5.2,-0.1 3,-2.3c-0.7,-0.7 -0.8,-1.2 -0.2,-1.2c1,0 2.6,2.7 3.7,6.2c0.5,1.5 2.6,2.3 6.9,2.7c1.4,0.1 1,-0.9 -1.8,-4.6zm27.8,3.5c-1.5,-1.5 -1.5,-4.5 0,-5.4c0.7,-0.4 0.8,-0.3 0.4,0.4c-0.8,1.4 -1,1.4 7.5,0.3c11.9,-1.6 17.9,-6.4 17.9,-14.5c0,-3.6 0,-3.6 2.4,-2.1c2,1.4 2.9,1.4 4.8,0.4c4.1,-2.2 4.9,-4.6 1.7,-5.1c-5.2,-0.8 -4.9,-7 0.4,-7.6c2.1,-0.3 2.8,0.2 3.3,2.3c0.8,3.3 3,1.8 4,-2.8c0.5,-2.5 0.2,-3.4 -1.6,-4.9c-2.2,-1.8 -2.2,-1.8 -0.2,-1.8c5.9,0 10.9,-15.3 6.4,-19.3c-3.9,-3.6 -9.4,-0.1 -6.2,3.8c0.9,1.1 1.7,1.2 3.1,0.4c1.3,-0.6 1.9,-0.6 1.9,0.1c0,1.4 -3,4.2 -7,6.3c-2.6,1.4 -3.1,2.2 -2.8,4.2c0.3,1.4 0.1,2.5 -0.3,2.5c-0.5,0 -0.9,-0.7 -0.9,-1.6c0,-0.8 -0.5,-2.4 -1.1,-3.5c-0.9,-1.8 -1.4,-1.4 -5.5,4.1c-3.9,5.3 -4.3,6.3 -3.3,8.3c0.7,1.2 1.9,2.7 2.8,3.4c0.9,0.6 1.3,1.5 0.8,1.9c-0.4,0.4 -0.7,0.2 -0.7,-0.4c0,-2.1 -3.9,-1.3 -5.4,1.1c-0.8,1.2 -1.7,4.9 -2.1,8.2c-0.7,6.7 -2.4,10 -5.5,11c-4.3,1.4 -7.1,-5.2 -3.2,-7.4c1.4,-0.9 1.2,-1 -1.5,-1.1c-5,0 -8.4,6.5 -5.1,9.8c1,1 0.6,1.1 -1.9,0.6c-2.5,-0.5 -3.6,-0.1 -6.1,2.3c-1.7,1.5 -3.3,3.8 -3.7,5.1c-0.6,2 -0.3,2.2 3.6,2.2c3.4,0 4,-0.3 3.1,-1.2zm20.8,-52.3c4.4,-7.1 4.1,-8.7 -5.5,-25.6c-12.6,-22.2 -20.6,-34.9 -22.1,-34.9c-0.7,0 -1.6,-0.5 -1.9,-1c-0.4,-0.7 0.2,-0.9 1.7,-0.5c1.2,0.3 4.3,-0.1 6.7,-1c5.5,-1.9 8.5,-1.9 10.5,0.1c2.7,2.6 2,6.2 -1.6,8.4c-3.1,1.9 -3.1,1.9 -0.5,3.1c2.2,1 3.2,1 5.5,-0.2c1.5,-0.7 3,-1.5 3.5,-1.7c0.4,-0.2 0.7,0.3 0.7,1c0,1.7 3.4,5 6.9,6.8c3.2,1.6 15.1,4.9 15.1,4.1c0,-1 -3,-5.3 -5.8,-8.3c-2.5,-2.7 -2.6,-2.7 -3.9,-0.8c-1.5,2.2 -4.9,2.6 -7.3,0.9c-1.2,-0.8 -1,-0.9 0.9,-0.4c2.6,0.8 2.8,1.3 -2.7,-7.3c-5,-8 -15.6,-14 -22.5,-12.9c-2.2,0.3 -3.8,-0.1 -5.2,-1.3c-1.1,-1 -3.3,-2.2 -4.8,-2.5c-2.7,-0.7 -2.8,-0.7 -2.1,3.3c0.6,3.8 0.5,4.1 -1.9,4.7c-1.4,0.4 -3.1,0.4 -3.6,0c-1.5,-0.9 -1.4,-5.8 0.1,-7.3c0.9,-0.9 0.6,-1.2 -1.5,-1.2c-1.6,0 -3.8,1 -5.1,2.3c-1.9,1.9 -2.8,2.1 -5.8,1.4c-4.9,-1.2 -12,1.9 -14.8,6.5c-2.6,4.4 -2.5,6.4 0.5,8.4c2.1,1.4 3.1,1.5 5,0.6c4,-1.9 2.7,-8 -1.4,-6.9c-2.5,0.6 -2.6,0.3 -0.5,-1.7c2.1,-2.2 5.7,-2 10.1,0.4c4.5,2.4 5.7,2.5 7.7,0.4c2,-1.9 2.1,-0.6 0.2,1.5c-2.2,2.5 -13.7,25.3 -13.1,26c0.3,0.3 1.6,-0.1 2.8,-0.8c2,-1.3 2.1,-1.3 0.9,0.1c-1,1.3 -1,1.7 0.2,2.1c1.9,0.8 2.3,0.1 8.5,-12.3c2.9,-5.8 5.6,-10.9 6,-11.3c0.4,-0.4 2.2,1.8 4,5c1.8,3.2 4.8,8.5 6.8,11.8c1.9,3.3 4.7,8 6.1,10.5c1.4,2.5 4.7,8.1 7.3,12.5c4.7,7.8 5.1,10.7 1.2,9c-1,-0.4 -2.3,-0.9 -3,-1.1c-0.7,-0.1 -3.8,-1.4 -6.9,-2.9c-4,-1.9 -5.9,-2.4 -6.7,-1.6c-0.6,0.6 -0.7,1.1 -0.2,1.1c0.6,0 0.3,0.5 -0.5,1.1c-1.3,0.8 -1.1,1.2 0.9,2.7c4.1,2.9 13.3,6.2 18.9,6.9c4.6,0.5 5.7,1 7.1,3.4c0.9,1.6 1.9,2.9 2.3,2.9c0.3,0 1.6,-1.6 2.8,-3.5zm-53.9,-3c7.6,-1.4 9.2,-1.4 12.8,-0.2c4.1,1.5 4.1,1.5 4.1,-1.2c0.1,-5.6 6.1,-14.5 12.7,-18.8c2.2,-1.5 2.2,-1.5 -0.3,-6.4c-1.3,-2.7 -2.9,-4.7 -3.4,-4.4c-0.5,0.3 -0.7,0 -0.4,-0.8c0.7,-1.8 -1.3,-3.3 -5.6,-4.1c-3.1,-0.5 -3.8,-0.3 -5.2,2.1c-2.8,4.6 -10.9,13.4 -15.6,16.7c-3.2,2.4 -5.6,5.5 -8.8,11.5c-4.5,8.4 -4.5,8.4 -1.7,7.8c1.5,-0.4 6.7,-1.4 11.4,-2.2zm-23.3,-4.7c-1,-0.8 -0.9,-0.9 0.3,-0.5c1.1,0.4 2,-0.3 2.8,-1.9c1,-2.3 0.9,-2.4 -2.7,-2.4c-10.5,0 -14.9,-10.4 -6.9,-16.4c4.8,-3.6 13.4,-2.9 23,1.6c7.4,3.6 10.6,4.1 9.1,1.6c-0.4,-0.7 -0.2,-0.8 0.5,-0.4c0.6,0.4 1.4,0 1.7,-0.8c0.8,-2.1 -2.5,-4.7 -8.8,-7.2c-3.6,-1.4 -4.8,-2.4 -4.8,-4c0,-1.1 -0.9,-2.9 -1.9,-3.8c-1.9,-1.7 -2,-1.7 -3.1,0.3c-1.3,2.6 -7.1,2.9 -9.1,0.5c-2.7,-3.3 5.8,-7.3 8.9,-4.2c0.9,0.9 1.2,0.7 1.2,-1c0,-1.2 -0.9,-3.1 -2,-4.2c-1.1,-1.1 -2,-3.3 -2,-4.9c0,-1.6 -0.9,-3.9 -2,-5.2c-1.9,-2.4 -1.9,-2.4 -2,-0.1c0,3.8 -1.8,6.3 -10.3,14.2c-5.1,4.8 -8.7,9.1 -9.8,11.8c-5,11.5 0.5,24.9 12.6,31c4,2 4,2 5.3,-0.5c1.2,-2.2 1.2,-2.7 0,-3.5z"/>
    <path d="m99.4,98.6c0.1,-0.9 0.7,-2.1 1.3,-2.7c0.9,-0.9 1.1,-0.7 0.9,0.5c-0.1,0.9 -0.7,2.1 -1.3,2.7c-0.9,0.9 -1.1,0.7 -0.9,-0.5z"/>
    <path d="m106,92.5c1.9,-1.9 3.6,-3.5 3.9,-3.5c0.3,0 -1,1.6 -2.9,3.5c-1.9,1.9 -3.6,3.5 -3.9,3.5c-0.3,0 1,-1.6 2.9,-3.5z"/>
    <path d="m97,66c-1.2,-1.6 -1.8,-3 -1.3,-3c0.4,0 1.6,1.4 2.5,3c2.2,3.9 1.5,3.9 -1.2,0z"/>
    <path d="m83.2,42.3c-2.6,-3.8 -3.4,-5.3 -2.9,-5.3c0.2,0 1.6,1.8 3.1,4c2.9,4.5 2.8,5.6 -0.2,1.3z"/>
    <path d="m50,69c0,-0.5 0.5,-1 1.2,-1c0.6,0 2.1,-0.8 3.2,-1.7c2,-1.7 2,-1.7 0.7,0c-1.9,2.4 -5.1,4.1 -5.1,2.7z"/>
    <path d="m20.5,70.8c-4,-4.2 -4,-4.2 -0.3,-1.2c3,2.4 5.5,5.4 4.5,5.4c-0.2,0 -2.1,-1.9 -4.2,-4.2z"/>
   </g>
  </symbol>
 </defs>
 <g>
  <title>Layer 1</title>
  <ellipse ry="230.5" rx="225.5" id="svg_3" cy="251.55" cx="256" stroke-width="0" stroke="#FF0000" fill="#ffffff"/>
  <use stroke="null" transform="matrix(2.970006942749023,0,0,2.970006942749023,43.98557432493544,35.17995834350586) " x="0" y="0" xlink:href="#svg_1" id="svg_2"/>
 </g>
</svg>